<?xml version="1.0" standalone="no"?>
<!DOCTYPE svg PUBLIC "-//W3C//DTD SVG 20010904//EN"
 "http://www.w3.org/TR/2001/REC-SVG-20010904/DTD/svg10.dtd">
<svg version="1.0" xmlns="http://www.w3.org/2000/svg"
 width="474.000000pt" height="512.000000pt" viewBox="0 0 474.000000 512.000000"
 preserveAspectRatio="xMidYMid meet">

<g transform="translate(0.000000,512.000000) scale(0.100000,-0.100000)"
fill="#000000" stroke="none">
<path d="M2250 5093 c-25 -14 -475 -259 -1000 -545 -525 -286 -983 -538 -1017
-560 -77 -49 -158 -134 -186 -195 -21 -46 -22 -63 -30 -528 -12 -774 -18
-1878 -9 -1884 4 -3 16 -26 27 -51 26 -60 123 -155 210 -207 132 -79 1997
-1093 2021 -1099 13 -3 24 -10 24 -15 0 -5 37 -9 82 -9 66 0 91 5 135 26 30
14 305 164 611 333 306 169 756 417 999 551 244 134 467 263 496 285 37 29 62
60 83 101 16 33 32 60 37 62 10 5 9 2412 -1 2412 -5 0 -16 18 -26 39 -24 56
-106 127 -222 192 -54 31 -481 267 -949 524 -467 257 -901 496 -964 531 l-114
64 -81 -1 c-66 -1 -89 -6 -126 -26z m-390 -1600 c103 -28 143 -76 161 -194 20
-129 -22 -241 -107 -284 -22 -11 -41 -21 -43 -22 -3 -2 145 -272 177 -321 l15
-23 -102 3 -102 3 -43 81 c-24 44 -62 115 -85 157 l-42 77 -50 0 -49 0 0 -160
0 -160 -85 0 -85 0 0 419 0 420 22 7 c34 11 214 21 293 16 39 -2 95 -11 125
-19z m-622 -415 l2 -428 -90 0 -90 0 0 423 c0 233 3 427 7 431 4 4 43 5 88 4
l80 -3 3 -427z m1450 397 c99 -54 138 -143 149 -340 14 -259 -40 -411 -165
-467 -64 -29 -208 -35 -292 -14 -160 41 -212 145 -212 426 -1 336 79 433 352
427 106 -2 119 -5 168 -32z m502 -2 c29 -28 76 -110 179 -313 l140 -275 3 310
3 310 75 0 75 0 0 -390 c0 -420 -2 -441 -51 -464 -56 -25 -122 -6 -160 46 -11
15 -83 151 -160 300 l-139 273 -3 -310 -2 -310 -75 0 -76 0 3 406 3 406 28 24
c21 18 40 24 73 24 38 0 51 -6 84 -37z m-1051 -1103 c10 -5 28 -33 39 -62 32
-79 272 -727 272 -733 0 -3 -15 -5 -34 -5 -31 0 -36 4 -50 43 -9 23 -28 76
-44 117 l-28 75 -175 3 -176 2 -43 -120 -44 -120 -33 0 c-18 0 -33 3 -33 8 0
25 293 779 307 790 20 15 20 14 42 2z m816 2 c35 -6 40 -11 43 -36 l4 -28 -86
7 c-158 13 -259 -26 -299 -113 -18 -39 -22 -71 -25 -193 -6 -211 16 -295 89
-343 47 -32 134 -45 242 -38 l77 5 0 -26 c0 -22 -6 -27 -37 -34 -21 -4 -83 -7
-139 -7 -158 1 -231 44 -279 164 -14 35 -19 81 -23 205 -7 284 39 389 189 429
57 16 178 19 244 8z m-1815 -182 l0 -180 220 0 220 0 0 180 0 180 35 0 35 0
-2 -397 -3 -398 -32 -3 -33 -3 0 190 0 191 -220 0 -220 0 0 -190 0 -190 -35 0
-35 0 0 400 0 400 35 0 35 0 0 -180z m2080 -3 l5 -178 179 180 c173 176 179
181 219 181 22 0 37 -3 33 -7 -157 -157 -366 -374 -366 -380 0 -7 122 -138
344 -370 l40 -43 -45 0 -45 0 -178 190 c-98 105 -181 190 -184 190 -4 0 -7
-84 -7 -187 l0 -188 -32 -3 -33 -3 0 401 0 401 33 -3 32 -3 5 -178z"/>
<path d="M1612 3373 c-22 -4 -23 -6 -20 -131 l3 -127 77 -3 c93 -3 139 13 168
60 37 62 20 157 -34 185 -31 16 -149 26 -194 16z"/>
<path d="M2428 3354 c-27 -11 -43 -28 -60 -62 -21 -44 -23 -60 -23 -222 0
-192 7 -218 67 -263 36 -27 143 -29 182 -4 55 36 61 64 61 272 0 206 -7 236
-59 271 -36 23 -124 27 -168 8z"/>
<path d="M2042 2076 c-40 -107 -72 -198 -72 -202 0 -5 68 -9 150 -9 104 0 150
3 148 11 -10 38 -144 394 -149 394 -3 0 -38 -87 -77 -194z"/>
</g>
</svg>
